<svg width="200" height="200" viewBox="0 0 200 200" fill="none" xmlns="http://www.w3.org/2000/svg">
<g clip-path="url(#clip0_380_786)">
<path fill-rule="evenodd" clip-rule="evenodd" d="M188 100C188 148.601 148.601 188 100 188C51.3989 188 12 148.601 12 100C12 51.3993 51.3989 12.0004 100 12.0004C148.601 12.0004 188 51.3993 188 100ZM200 100C200 155.228 155.228 200 100 200C44.7715 200 0 155.228 0 100C0 44.7719 44.7715 0.000366211 100 0.000366211C155.228 0.000366211 200 44.7719 200 100ZM100 111C106.075 111 111 106.075 111 100C111 93.9253 106.075 89.0004 100 89.0004C93.9249 89.0004 89 93.9253 89 100C89 106.075 93.9249 111 100 111Z" fill="#0F0F0F"/>
</g>
<defs>
<clipPath id="clip0_380_786">
<rect width="200" height="200" fill="white" transform="translate(0 0.000366211)"/>
</clipPath>
</defs>
</svg>
